<?xml version="1.0" standalone="no"?><!DOCTYPE svg PUBLIC "-//W3C//DTD SVG 1.1//EN" "http://www.w3.org/Graphics/SVG/1.1/DTD/svg11.dtd"><svg t="1731671212494" class="icon" viewBox="0 0 1024 1024" version="1.1" xmlns="http://www.w3.org/2000/svg" p-id="22698" xmlns:xlink="http://www.w3.org/1999/xlink" width="200" height="200"><path d="M242.56 489.557333a314.368 314.368 0 1 0 628.736 0 314.368 314.368 0 0 0-628.736 0z" fill="#D0EEFB" p-id="22699"></path><path d="M755.797333 178.389333l15.701334 14.421334c-106.922667 116.48-168.533333 222.293333-185.002667 317.013333-15.872 91.306667-4.266667 215.125333 34.986667 371.2l5.290666 20.565333-20.650666 5.418667c-44.202667-168.533333-57.813333-302.037333-40.618667-400.853333 16.554667-95.189333 75.605333-199.424 176.853333-312.917334l13.44-14.848z" fill="#13AAEA" p-id="22700"></path><path d="M113.536 565.205333l-3.072-21.077333 29.909333-4.181333c72.021333-9.557333 123.221333-12.672 154.112-9.301334 220.501333 24.32 342.186667 133.12 381.525334 344.618667l2.389333 13.653333-21.034667 3.498667c-34.986667-210.944-149.418667-316.8-365.226666-340.565333-28.8-3.157333-78.72-0.085333-149.290667 9.301333l-29.312 4.053333z" fill="#FDAB89" p-id="22701"></path><path d="M384.554667 142.634667c68.266667 167.381333 148.736 277.546667 240.853333 330.794666 87.893333 50.773333 180.864 65.28 279.296 43.605334l14.08-3.370667 5.290667 20.693333c-109.098667 27.733333-212.394667 13.568-309.333334-42.453333-93.44-54.016-174.08-161.792-242.432-323.072l-7.509333-18.133333 19.754667-8.064z" fill="#13AAEA" p-id="22702"></path><path d="M301.44 167.68c66.858667 78.336 84.096 167.296 51.541333 265.557333-31.317333 94.421333-101.802667 158.848-210.474666 192.768l-13.226667 3.925334-5.802667-20.522667c109.653333-30.933333 179.029333-91.733333 209.237334-182.912 29.013333-87.338667 15.701333-165.546667-39.978667-235.818667l-7.509333-9.130666 16.213333-13.824V167.68z" fill="#FDAB89" p-id="22703"></path><path d="M482.688 85.333333l2.645333 53.333334c-69.333333 5.333333-133.333333 29.354667-192 69.333333l-29.312-42.666667c64-48 138.666667-74.666667 218.666667-80z m346.666667 709.333334l-40.021334-34.645334A365.269333 365.269333 0 0 0 885.333333 512c0-194.645333-149.333333-357.333333-343.978666-373.333333L546.688 85.333333c221.866667 18.346667 392.448 204.032 391.978667 426.666667 0 106.666667-39.978667 205.354667-109.312 282.666667z" fill="#13AAEA" p-id="22704"></path><path d="M701.525333 148.608l19.626667 8.32c-43.306667 102.570667-120.746667 176.853333-231.765333 222.506667-107.093333 44.074667-217.685333 40.192-331.093334-11.392l-13.653333-6.442667 9.386667-19.2c112.853333 55.04 221.653333 60.757333 327.253333 17.322667 101.333333-41.685333 172.714667-107.776 214.698667-198.570667l5.546666-12.544z" fill="#13AAEA" p-id="22705"></path><path d="M348.714667 143.061333c64 177.664 92.714667 314.965333 85.930666 412.330667-6.314667 90.837333-32 192.512-76.885333 305.066667l-9.258667 22.656-19.669333-8.192c49.792-119.637333 77.952-226.645333 84.522667-320.981334 6.272-90.24-19.541333-218.24-77.610667-383.616l-7.125333-20.053333 20.053333-7.253333 0.042667 0.042666z" fill="#13AAEA" p-id="22706"></path><path d="M218.666667 200.021333L256 240C181.333333 309.333333 138.666667 408.021333 138.666667 512c0 117.333333 53.333333 224 144 293.333333l-32 42.666667C146.688 765.354667 85.333333 642.688 85.333333 512c0-119.978667 48-231.978667 133.333334-311.978667z" fill="#FDAB89" p-id="22707"></path><path d="M293.333333 877.354667L320 832c58.666667 34.688 122.666667 53.333333 192 53.333333 90.666667 0 176-32 245.333333-90.666666l34.688 40.021333A427.776 427.776 0 0 1 512 938.666667c-77.312 0-154.666667-21.333333-218.666667-61.312z" fill="#13AAEA" p-id="22708"></path></svg>